# xmcd
#
# Track frame offsets:
#	150
#	12038
#	26716
#	41902
#	61603
#	78749
#	94362
#	108100
#	124198
#	141018
#	159121
#	174153
#	183338
#	195622
#
# Disc length: 2965 seconds
#
# Revision: 1
# Processed by: cddbd v1.5.2PL0 Copyright (c) Steve Scherf et al.
# Submitted via: audiograbber 1.83.01
#
DISCID=ab0b930e
DTITLE=Mark Ripp - Quiet Again
DYEAR=2013
DGENRE=
TTITLE0=The Thing You Want The Most
TTITLE1=Walking Around
TTITLE2=Old Weeping Birch
TTITLE3=Ballad Of Canadian Soldier X
TTITLE4=Circle Round The Sun
TTITLE5=Bumble Along
TTITLE6=Year Of The Gun
TTITLE7=No Else But You
TTITLE8=Bob Dylan
TTITLE9=A Generous Man
TTITLE10=In My Room
TTITLE11=To Many Black Coats
TTITLE12=Duct Tape Jesus
TTITLE13=Poignant
EXTD=
EXTT0=
EXTT1=
EXTT2=
EXTT3=
EXTT4=
EXTT5=
EXTT6=
EXTT7=
EXTT8=
EXTT9=
EXTT10=
EXTT11=
EXTT12=
EXTT13=
PLAYORDER=
